<svg width="148" height="30" viewBox="0 0 148 30" fill="none" xmlns="http://www.w3.org/2000/svg">
<g clip-path="url(#clip0_107_13929)">
<path fill-rule="evenodd" clip-rule="evenodd" d="M18.724 8.56151C17.5191 7.75645 16.1025 7.32673 14.6535 7.32673V0C17.5516 0 20.3847 0.859411 22.7945 2.46956C25.2043 4.07969 27.0824 6.36826 28.1915 9.0458C29.3006 11.7234 29.5908 14.6697 29.0254 17.5122C28.46 20.3547 27.0644 22.9657 25.015 25.015C22.9657 27.0644 20.3547 28.46 17.5122 29.0254C14.6697 29.5908 11.7234 29.3006 9.0458 28.1915C6.36825 27.0824 4.07969 25.2043 2.46956 22.7945C0.859411 20.3847 0 17.5516 0 14.6535H7.32673C7.32673 16.1025 7.75645 17.5191 8.56151 18.724C9.36657 19.9289 10.5109 20.8679 11.8497 21.4225C13.1884 21.977 14.6616 22.1221 16.0828 21.8394C17.5041 21.5567 18.8096 20.8589 19.8343 19.8343C20.8589 18.8096 21.5567 17.5041 21.8394 16.0828C22.1221 14.6616 21.977 13.1884 21.4225 11.8497C20.8679 10.5109 19.9289 9.36657 18.724 8.56151Z" fill="#FFFDF5"/>
<path fill-rule="evenodd" clip-rule="evenodd" d="M7.32673 3.87213e-06C7.32673 0.962164 7.13722 1.9149 6.76902 2.80383C6.40081 3.69274 5.86113 4.50043 5.18078 5.18079C4.50043 5.86114 3.69274 6.40082 2.80382 6.76902C1.9149 7.13722 0.962157 7.32674 3.20259e-07 7.32674L0 14.6535C1.92432 14.6535 3.8298 14.2745 5.60764 13.538C7.38549 12.8016 9.00089 11.7223 10.3615 10.3615C11.7223 9.00089 12.8016 7.3855 13.538 5.60764C14.2744 3.8298 14.6535 1.92432 14.6535 0L7.32673 3.87213e-06Z" fill="#FFFDF5"/>
<path d="M92.0377 10.5889H88.4827V21.881H92.0377V10.5889Z" fill="#FFFDF5"/>
<path d="M88.8784 8.47449C89.2499 8.84625 89.7144 9.03213 90.272 9.03213C90.8295 9.03213 91.2867 8.84625 91.6428 8.47449C91.9996 8.08727 92.1776 7.62254 92.1776 7.08039C92.1776 6.52277 91.9996 6.05805 91.6428 5.68631C91.2867 5.31453 90.8295 5.12866 90.272 5.12866C89.7144 5.12866 89.2499 5.31453 88.8784 5.68631C88.5216 6.05805 88.3436 6.52277 88.3436 7.08039C88.3436 7.62254 88.5216 8.08727 88.8784 8.47449Z" fill="#FFFDF5"/>
<path d="M37.4808 21.881V5.47705H41.1287V18.6746H48.4013V21.881H37.4808Z" fill="#FFFDF5"/>
<path fill-rule="evenodd" clip-rule="evenodd" d="M54.9706 22.1364C53.8088 22.1364 52.7556 21.8808 51.8106 21.3696C50.8812 20.843 50.1455 20.1305 49.6033 19.232C49.0612 18.3336 48.7901 17.3267 48.7901 16.2115C48.7901 15.0962 49.0612 14.0971 49.6033 13.2142C50.1455 12.3312 50.8812 11.6342 51.8106 11.123C52.74 10.5963 53.7934 10.333 54.9706 10.333C56.1478 10.333 57.2011 10.5886 58.1305 11.0998C59.0599 11.6109 59.7957 12.3158 60.3378 13.2142C60.88 14.0971 61.1511 15.0962 61.1511 16.2115C61.1511 17.3267 60.88 18.3336 60.3378 19.232C59.7957 20.1305 59.0599 20.843 58.1305 21.3696C57.2011 21.8808 56.1478 22.1364 54.9706 22.1364ZM54.9706 18.9068C55.4818 18.9068 55.931 18.7983 56.3183 18.5814C56.7055 18.3491 56.9998 18.0316 57.2011 17.6288C57.418 17.2106 57.5264 16.7381 57.5264 16.2115C57.5264 15.6848 57.418 15.2279 57.2011 14.8406C56.9843 14.4379 56.6822 14.1281 56.295 13.9112C55.9232 13.6788 55.4818 13.5627 54.9706 13.5627C54.4749 13.5627 54.0335 13.6788 53.6462 13.9112C53.259 14.1281 52.9569 14.4379 52.74 14.8406C52.5232 15.2434 52.4148 15.708 52.4148 16.2347C52.4148 16.7459 52.5232 17.2106 52.74 17.6288C52.9569 18.0316 53.259 18.3491 53.6462 18.5814C54.0335 18.7983 54.4749 18.9068 54.9706 18.9068Z" fill="#FFFDF5"/>
<path fill-rule="evenodd" clip-rule="evenodd" d="M63.9666 26.2957C64.9114 26.7293 66.0035 26.9462 67.2427 26.9462C68.4509 26.9462 69.5275 26.7061 70.4723 26.2259C71.4173 25.7457 72.1607 25.0797 72.7029 24.2278C73.245 23.3758 73.5164 22.369 73.5164 21.2072V10.5888H70.0308V11.3475C69.7716 11.1293 69.4772 10.9462 69.148 10.798C68.5438 10.5036 67.8545 10.3564 67.0801 10.3564C66.0422 10.3564 65.1205 10.6043 64.3151 11.1C63.5095 11.5802 62.8745 12.2462 62.4098 13.0982C61.945 13.9347 61.7128 14.8795 61.7128 15.9329C61.7128 16.9707 61.945 17.9156 62.4098 18.7675C62.8745 19.6195 63.5095 20.2933 64.3151 20.789C65.1205 21.2846 66.0422 21.5325 67.0801 21.5325C67.839 21.5325 68.5283 21.3854 69.148 21.0911C69.4481 20.9485 69.7191 20.7805 69.9611 20.587V21.3002C69.9611 22.0901 69.7056 22.702 69.1944 23.1357C68.6988 23.5695 68.0095 23.7863 67.1265 23.7863C66.414 23.7863 65.8021 23.6624 65.2909 23.4145C64.7953 23.1667 64.346 22.8027 63.9433 22.3225L61.7592 24.5066C62.3013 25.2811 63.0372 25.8775 63.9666 26.2957ZM69.0318 18.0472C68.6755 18.2641 68.2495 18.3726 67.7538 18.3726C67.2582 18.3726 66.8244 18.2641 66.4527 18.0472C66.0964 17.8304 65.8176 17.5361 65.6162 17.1643C65.4148 16.7771 65.3142 16.3666 65.3142 15.9329C65.3142 15.4682 65.4148 15.0499 65.6162 14.6782C65.8176 14.3064 66.1041 14.0121 66.4759 13.7952C66.8477 13.5784 67.2736 13.4699 67.7538 13.4699C68.2495 13.4699 68.6755 13.5784 69.0318 13.7952C69.4035 14.0121 69.6823 14.3064 69.8682 14.6782C70.0696 15.0499 70.1703 15.4682 70.1703 15.9329C70.1703 16.3976 70.0696 16.8158 69.8682 17.1875C69.6823 17.5438 69.4035 17.8304 69.0318 18.0472Z" fill="#FFFDF5"/>
<path fill-rule="evenodd" clip-rule="evenodd" d="M80.9978 22.1364C79.8357 22.1364 78.7822 21.8808 77.8377 21.3696C76.908 20.843 76.1724 20.1305 75.6302 19.232C75.088 18.3336 74.8169 17.3267 74.8169 16.2115C74.8169 15.0962 75.088 14.0971 75.6302 13.2142C76.1724 12.3312 76.908 11.6342 77.8377 11.123C78.7668 10.5963 79.8204 10.333 80.9978 10.333C82.1744 10.333 83.228 10.5886 84.157 11.0998C85.0868 11.6109 85.8224 12.3158 86.3646 13.2142C86.9068 14.0971 87.1779 15.0962 87.1779 16.2115C87.1779 17.3267 86.9068 18.3336 86.3646 19.232C85.8224 20.1305 85.0868 20.843 84.157 21.3696C83.228 21.8808 82.1744 22.1364 80.9978 22.1364ZM80.9978 18.9068C81.5084 18.9068 81.9576 18.7983 82.3451 18.5814C82.732 18.3491 83.0265 18.0316 83.228 17.6288C83.4449 17.2106 83.5533 16.7381 83.5533 16.2115C83.5533 15.6848 83.4449 15.2279 83.228 14.8406C83.0111 14.4379 82.7093 14.1281 82.3217 13.9112C81.9502 13.6788 81.5084 13.5627 80.9978 13.5627C80.5017 13.5627 80.0599 13.6788 79.6731 13.9112C79.2855 14.1281 78.9836 14.4379 78.7668 14.8406C78.5499 15.2434 78.4415 15.708 78.4415 16.2347C78.4415 16.7459 78.5499 17.2106 78.7668 17.6288C78.9836 18.0316 79.2855 18.3491 79.6731 18.5814C80.0599 18.7983 80.5017 18.9068 80.9978 18.9068Z" fill="#FFFDF5"/>
<path fill-rule="evenodd" clip-rule="evenodd" d="M100.582 22.1134C99.8238 22.1134 99.1263 21.9662 98.4911 21.6719C98.157 21.517 97.8551 21.3321 97.5855 21.1171V26.6442H94.0767V10.5888H97.6316V11.3682C97.8895 11.1573 98.176 10.9749 98.4911 10.8212C99.1263 10.5113 99.8238 10.3564 100.582 10.3564C101.651 10.3564 102.596 10.6121 103.417 11.1233C104.254 11.6344 104.904 12.3314 105.369 13.2144C105.849 14.0973 106.089 15.1042 106.089 16.2349C106.089 17.3657 105.849 18.3726 105.369 19.2555C104.904 20.1384 104.254 20.8354 103.417 21.3466C102.596 21.8578 101.651 22.1134 100.582 22.1134ZM99.9322 18.907C100.443 18.907 100.885 18.7908 101.256 18.5584C101.644 18.3261 101.946 18.0085 102.162 17.6058C102.379 17.2031 102.488 16.7461 102.488 16.2349C102.488 15.7083 102.379 15.2436 102.162 14.8408C101.946 14.4381 101.644 14.1283 101.256 13.9114C100.885 13.679 100.451 13.5629 99.9549 13.5629C99.4597 13.5629 99.0178 13.679 98.631 13.9114C98.2588 14.1283 97.965 14.4381 97.7481 14.8408C97.5313 15.2436 97.4228 15.7083 97.4228 16.2349C97.4228 16.7461 97.5232 17.2031 97.7247 17.6058C97.9416 18.0085 98.2434 18.3261 98.631 18.5584C99.0178 18.7908 99.4516 18.907 99.9322 18.907Z" fill="#FFFDF5"/>
<path d="M109.568 21.9041C110.219 22.0746 110.877 22.1597 111.543 22.1597C112.953 22.1597 114.068 21.8345 114.889 21.1838C115.725 20.5333 116.143 19.6581 116.143 18.5583C116.143 17.8458 116.012 17.2726 115.748 16.839C115.485 16.3897 115.145 16.0334 114.726 15.7701C114.308 15.5068 113.866 15.2976 113.402 15.1427C112.937 14.9879 112.495 14.8562 112.078 14.7478C111.659 14.6393 111.319 14.5154 111.055 14.376C110.792 14.2366 110.66 14.0507 110.66 13.8184C110.66 13.6015 110.761 13.4388 110.962 13.3304C111.163 13.2065 111.465 13.1446 111.868 13.1446C112.287 13.1446 112.712 13.2297 113.146 13.4001C113.595 13.5705 113.998 13.8649 114.354 14.2831L116.376 12.2384C115.865 11.5878 115.199 11.0998 114.378 10.7746C113.572 10.4338 112.69 10.2634 111.729 10.2634C110.815 10.2634 110.017 10.4183 109.336 10.7281C108.654 11.0379 108.127 11.4639 107.756 12.006C107.384 12.5327 107.198 13.1601 107.198 13.8881C107.198 14.5696 107.33 15.135 107.593 15.5842C107.856 16.0179 108.198 16.3588 108.615 16.6065C109.033 16.8544 109.475 17.0481 109.94 17.1874C110.404 17.3268 110.846 17.4585 111.264 17.5825C111.682 17.6909 112.024 17.8226 112.287 17.9775C112.566 18.1169 112.705 18.326 112.705 18.6048C112.705 18.8216 112.588 18.992 112.356 19.116C112.139 19.2398 111.822 19.3018 111.404 19.3018C110.799 19.3018 110.242 19.1934 109.731 18.9765C109.22 18.7442 108.778 18.4267 108.406 18.0239L106.385 20.0686C106.772 20.4868 107.237 20.8586 107.779 21.1838C108.337 21.4936 108.933 21.7337 109.568 21.9041Z" fill="#FFFDF5"/>
<path d="M122.626 22.1366C121.589 22.1366 120.667 21.9275 119.862 21.5093C119.071 21.0755 118.452 20.4869 118.003 19.7434C117.553 18.9844 117.329 18.117 117.329 17.1411V10.5889H120.884V17.0946C120.884 17.4819 120.945 17.8149 121.07 18.0937C121.209 18.3726 121.411 18.5894 121.674 18.7443C121.937 18.8992 122.255 18.9767 122.626 18.9767C123.153 18.9767 123.571 18.814 123.881 18.4887C124.191 18.1479 124.346 17.6833 124.346 17.0946V10.5889H127.901V17.1179C127.901 18.1092 127.676 18.9844 127.227 19.7434C126.777 20.4869 126.158 21.0755 125.368 21.5093C124.578 21.9275 123.664 22.1366 122.626 22.1366Z" fill="#FFFDF5"/>
<path d="M133.223 10.5888H129.668V21.881H133.223V15.2823C133.223 14.8951 133.3 14.5698 133.455 14.3064C133.626 14.0431 133.851 13.8417 134.129 13.7023C134.408 13.5474 134.725 13.4699 135.082 13.4699C135.593 13.4699 136.019 13.6326 136.359 13.9579C136.716 14.2677 136.894 14.7092 136.894 15.2823V21.881H140.449V15.2823C140.449 14.8951 140.527 14.5698 140.681 14.3064C140.852 14.0431 141.076 13.8417 141.355 13.7023C141.634 13.5474 141.952 13.4699 142.308 13.4699C142.819 13.4699 143.245 13.6326 143.586 13.9579C143.942 14.2677 144.12 14.7092 144.12 15.2823V21.881H147.675V14.8873C147.675 13.9424 147.474 13.1369 147.071 12.4709C146.683 11.7893 146.149 11.2704 145.468 10.9142C144.802 10.5423 144.035 10.3564 143.167 10.3564C142.284 10.3564 141.487 10.5501 140.774 10.9374C140.311 11.1841 139.907 11.5025 139.56 11.8926C139.237 11.4845 138.845 11.1507 138.381 10.8909C137.762 10.5346 137.057 10.3564 136.267 10.3564C135.43 10.3564 134.679 10.5346 134.013 10.8909C133.723 11.0391 133.46 11.2166 133.223 11.4234V10.5888Z" fill="#FFFDF5"/>
</g>
<defs>
<clipPath id="clip0_107_13929">
<rect width="148" height="29.3069" fill="white"/>
</clipPath>
</defs>
</svg>
