<svg width="128" height="25" viewBox="0 0 128 25" fill="none" xmlns="http://www.w3.org/2000/svg">
<g clip-path="url(#clip0_107_13953)">
<path d="M30.8525 1.6731H34.0482V19.1043H39.3066V22.0096H30.8525V1.6731Z" fill="#FFFDF5"/>
<path d="M45.345 22.3003C43.7762 22.3003 42.5754 21.8549 41.7425 20.9639C40.9097 20.073 40.4933 18.8141 40.4933 17.1871V6.49599C40.4933 4.86907 40.9097 3.61014 41.7425 2.71921C42.5754 1.82828 43.7762 1.38281 45.345 1.38281C46.9138 1.38281 48.1146 1.82828 48.9474 2.71921C49.7802 3.61014 50.1966 4.86907 50.1966 6.49599V17.1871C50.1966 18.8141 49.7802 20.073 48.9474 20.9639C48.1146 21.8549 46.9138 22.3003 45.345 22.3003ZM45.345 19.3951C46.449 19.3951 47.001 18.7269 47.001 17.3905V6.29262C47.001 4.95622 46.449 4.28802 45.345 4.28802C44.241 4.28802 43.689 4.95622 43.689 6.29262V17.3905C43.689 18.7269 44.241 19.3951 45.345 19.3951Z" fill="#FFFDF5"/>
<path d="M56.89 22.3003C55.3405 22.3003 54.1591 21.8646 53.3456 20.993C52.5321 20.1021 52.1254 18.8335 52.1254 17.1871V6.49599C52.1254 4.8497 52.5321 3.59077 53.3456 2.71921C54.1591 1.82828 55.3405 1.38281 56.89 1.38281C58.4394 1.38281 59.6209 1.82828 60.4343 2.71921C61.2478 3.59077 61.6545 4.8497 61.6545 6.49599V8.23911H58.6331V6.29262C58.6331 4.95622 58.0811 4.28802 56.9771 4.28802C55.8732 4.28802 55.3212 4.95622 55.3212 6.29262V17.4196C55.3212 18.7367 55.8732 19.3951 56.9771 19.3951C58.0811 19.3951 58.6331 18.7367 58.6331 17.4196V13.4395H57.0353V10.5343H61.6545V17.1871C61.6545 18.8335 61.2478 20.1021 60.4343 20.993C59.6209 21.8646 58.4394 22.3003 56.89 22.3003Z" fill="#FFFDF5"/>
<path d="M68.3256 22.3003C66.7568 22.3003 65.556 21.8549 64.7232 20.9639C63.8903 20.073 63.4739 18.8141 63.4739 17.1871V6.49599C63.4739 4.86907 63.8903 3.61014 64.7232 2.71921C65.556 1.82828 66.7568 1.38281 68.3256 1.38281C69.8945 1.38281 71.0953 1.82828 71.9281 2.71921C72.761 3.61014 73.1774 4.86907 73.1774 6.49599V17.1871C73.1774 18.8141 72.761 20.073 71.9281 20.9639C71.0953 21.8549 69.8945 22.3003 68.3256 22.3003ZM68.3256 19.3951C69.4296 19.3951 69.9816 18.7269 69.9816 17.3905V6.29262C69.9816 4.95622 69.4296 4.28802 68.3256 4.28802C67.2217 4.28802 66.6697 4.95622 66.6697 6.29262V17.3905C66.6697 18.7269 67.2217 19.3951 68.3256 19.3951Z" fill="#FFFDF5"/>
<path d="M75.3446 1.6731H78.5404V22.0096H75.3446V1.6731Z" fill="#FFFDF5"/>
<path d="M80.9336 1.6731H85.64C87.228 1.6731 88.4192 2.09919 89.2136 2.95139C90.008 3.80358 90.4048 5.05282 90.4048 6.69911V8.7037C90.4048 10.35 90.008 11.5992 89.2136 12.4515C88.4192 13.3036 87.228 13.7297 85.64 13.7297H84.1296V22.0096H80.9336V1.6731ZM85.64 10.8245C86.1632 10.8245 86.5504 10.6792 86.8024 10.3887C87.0736 10.0982 87.2088 9.60434 87.2088 8.90706V6.49575C87.2088 5.7985 87.0736 5.30461 86.8024 5.01409C86.5504 4.72357 86.1632 4.57831 85.64 4.57831H84.1296V10.8245H85.64Z" fill="#FFFDF5"/>
<path d="M96.408 22.3003C94.8592 22.3003 93.6872 21.8646 92.8928 20.993C92.0992 20.1021 91.7016 18.8335 91.7016 17.1871V16.0251H94.7232V17.4196C94.7232 18.7367 95.2752 19.3951 96.3792 19.3951C96.9216 19.3951 97.328 19.2402 97.5992 18.9303C97.8896 18.6011 98.0352 18.0781 98.0352 17.3615C98.0352 16.5093 97.8416 15.7636 97.4544 15.1245C97.0672 14.4659 96.3504 13.6815 95.304 12.7712C93.9872 11.6091 93.0672 10.5633 92.544 9.63361C92.0216 8.68457 91.76 7.61933 91.76 6.43789C91.76 4.83033 92.1664 3.59077 92.98 2.71921C93.7936 1.82828 94.9752 1.38281 96.5248 1.38281C98.0544 1.38281 99.2072 1.82828 99.9816 2.71921C100.776 3.59077 101.173 4.8497 101.173 6.49599V7.3385H98.1512V6.29262C98.1512 5.59537 98.016 5.0918 97.7448 4.78191C97.4736 4.45265 97.0768 4.28802 96.5536 4.28802C95.488 4.28802 94.956 4.93685 94.956 6.23452C94.956 6.9705 95.1496 7.65807 95.5368 8.29721C95.9432 8.93633 96.6696 9.71105 97.716 10.6214C99.052 11.7835 99.972 12.8391 100.476 13.7881C100.979 14.7371 101.231 15.8507 101.231 17.1291C101.231 18.7947 100.814 20.073 99.9816 20.9639C99.168 21.8549 97.9768 22.3003 96.408 22.3003Z" fill="#FFFDF5"/>
<path d="M107.712 22.3001C106.162 22.3001 104.981 21.8643 104.167 20.9927C103.354 20.1019 102.947 18.8332 102.947 17.1869V1.6731H106.143V17.4194C106.143 18.1166 106.278 18.6202 106.55 18.9301C106.84 19.2399 107.247 19.3949 107.77 19.3949C108.293 19.3949 108.69 19.2399 108.961 18.9301C109.251 18.6202 109.397 18.1166 109.397 17.4194V1.6731H112.476V17.1869C112.476 18.8332 112.07 20.1019 111.256 20.9927C110.442 21.8643 109.261 22.3001 107.712 22.3001Z" fill="#FFFDF5"/>
<path d="M114.752 1.6731H119.314L121.347 16.2282H121.405L123.439 1.6731H128V22.0096H124.978V6.61196H124.921L122.596 22.0096H119.923L117.599 6.61196H117.542V22.0096H114.752V1.6731Z" fill="#FFFDF5"/>
<path d="M0 22.0097C3.93158 22.0097 7.11873 18.8225 7.11873 14.891C7.11873 10.9594 3.93158 7.77222 0 7.77222V12.7553C1.17946 12.7553 2.13561 13.7115 2.13561 14.891C2.13561 16.0704 1.17946 17.0266 0 17.0266V22.0097Z" fill="#FFFDF5"/>
<path d="M23.7291 10.1453C22.5126 9.75992 21.2172 9.552 19.8731 9.552C12.829 9.552 7.11874 15.2624 7.11874 22.3064C7.11874 23.0134 7.17628 23.707 7.28689 24.3827H15.2116C14.9287 23.7485 14.7714 23.0458 14.7714 22.3064C14.7714 19.4888 17.0555 17.2046 19.8731 17.2046C21.4131 17.2046 22.7937 17.887 23.7291 18.9658V10.1453Z" fill="#FFFDF5"/>
<path d="M1.25162 0.653564C1.84181 5.99256 6.36825 10.1452 11.8646 10.1452C17.3608 10.1452 21.8873 5.99256 22.4774 0.653564H14.841C14.3696 1.8354 13.2146 2.67053 11.8646 2.67053C10.5145 2.67053 9.35953 1.8354 8.88801 0.653564H1.25162Z" fill="#FFFDF5"/>
</g>
<defs>
<clipPath id="clip0_107_13953">
<rect width="128" height="24" fill="white" transform="translate(0 0.653564)"/>
</clipPath>
</defs>
</svg>
