<svg width="116" height="30" viewBox="0 0 116 30" fill="none" xmlns="http://www.w3.org/2000/svg">
<g clip-path="url(#clip0_107_13942)">
<path d="M34.9099 20.3871H43.1136V17.9161H37.8257V8.60864H34.9099V20.3871Z" fill="#FFFDF5"/>
<path d="M47.974 18.7393C46.8044 18.7393 46.1949 17.718 46.1949 16.186C46.1949 14.6539 46.8044 13.6161 47.974 13.6161C49.1436 13.6161 49.7696 14.6539 49.7696 16.186C49.7696 17.718 49.1436 18.7393 47.974 18.7393ZM47.9905 20.6502C50.7086 20.6502 52.4877 18.7229 52.4877 16.186C52.4877 13.6491 50.7086 11.7217 47.9905 11.7217C45.2889 11.7217 43.4768 13.6491 43.4768 16.186C43.4768 18.7229 45.2889 20.6502 47.9905 20.6502Z" fill="#FFFDF5"/>
<path d="M57.1926 23.3026C58.4446 23.3026 59.5483 23.0225 60.2896 22.3636C60.965 21.7541 61.4098 20.8316 61.4098 19.5631V11.9524H58.8399V12.8585H58.807C58.3128 12.1501 57.555 11.7053 56.4348 11.7053C54.3427 11.7053 52.893 13.4515 52.893 15.9225C52.893 18.5088 54.6557 19.9255 56.5501 19.9255C57.5715 19.9255 58.2139 19.5137 58.7081 18.9536H58.774V19.7937C58.774 20.8151 58.2963 21.4081 57.1596 21.4081C56.2701 21.4081 55.8253 21.0293 55.677 20.5845H53.0742C53.3378 22.3471 54.8698 23.3026 57.1926 23.3026ZM57.1761 17.9323C56.1712 17.9323 55.5123 17.1086 55.5123 15.8401C55.5123 14.5552 56.1712 13.7315 57.1761 13.7315C58.2963 13.7315 58.8893 14.687 58.8893 15.8237C58.8893 17.0097 58.3457 17.9323 57.1761 17.9323Z" fill="#FFFDF5"/>
<path d="M66.6938 18.7393C65.5242 18.7393 64.9147 17.718 64.9147 16.186C64.9147 14.6539 65.5242 13.6161 66.6938 13.6161C67.8634 13.6161 68.4894 14.6539 68.4894 16.186C68.4894 17.718 67.8634 18.7393 66.6938 18.7393ZM66.7103 20.6502C69.4284 20.6502 71.2075 18.7229 71.2075 16.186C71.2075 13.6491 69.4284 11.7217 66.7103 11.7217C64.0087 11.7217 62.1966 13.6491 62.1966 16.186C62.1966 18.7229 64.0087 20.6502 66.7103 20.6502Z" fill="#FFFDF5"/>
<path d="M71.9914 20.3871H74.6766V11.9527H71.9914V20.3871ZM71.9914 10.7831H74.6766V8.60864H71.9914V10.7831Z" fill="#FFFDF5"/>
<path d="M75.842 23.1708H78.5272V19.5137H78.5601C79.0873 20.2221 79.8615 20.6504 80.9488 20.6504C83.1562 20.6504 84.6223 18.9042 84.6223 16.1696C84.6223 13.6327 83.2551 11.7053 81.0147 11.7053C79.8615 11.7053 79.0379 12.216 78.4613 12.9738H78.4119V11.9524H75.842V23.1708ZM80.2569 18.5747C79.1038 18.5747 78.4448 17.6357 78.4448 16.2684C78.4448 14.9012 79.0379 13.8633 80.2075 13.8633C81.3606 13.8633 81.9042 14.8188 81.9042 16.2684C81.9042 17.7016 81.2783 18.5747 80.2569 18.5747Z" fill="#FFFDF5"/>
<path d="M88.994 20.6504C91.2014 20.6504 92.8323 19.6949 92.8323 17.8499C92.8323 15.6919 91.0861 15.313 89.6035 15.0659C88.5327 14.8682 87.5773 14.7858 87.5773 14.1928C87.5773 13.6657 88.0879 13.4186 88.7469 13.4186C89.4882 13.4186 89.9988 13.6492 90.0977 14.407H92.5687C92.4369 12.7431 91.152 11.7053 88.7633 11.7053C86.7701 11.7053 85.1227 12.6278 85.1227 14.407C85.1227 16.3838 86.6877 16.7791 88.1538 17.0262C89.274 17.2239 90.2954 17.3063 90.2954 18.064C90.2954 18.6077 89.7847 18.9042 88.9775 18.9042C88.0879 18.9042 87.5278 18.4924 87.429 17.6522H84.8921C84.9745 19.5137 86.523 20.6504 88.994 20.6504Z" fill="#FFFDF5"/>
<path d="M96.4797 20.6341C97.6493 20.6341 98.3906 20.1728 99.0002 19.3492H99.0496V20.387H101.619V11.9526H98.9343V16.664C98.9343 17.6689 98.3742 18.3608 97.4517 18.3608C96.5951 18.3608 96.1832 17.8501 96.1832 16.9276V11.9526H93.5145V17.4877C93.5145 19.3657 94.5359 20.6341 96.4797 20.6341Z" fill="#FFFDF5"/>
<path d="M102.787 20.3868H105.472V15.6589C105.472 14.6541 105.966 13.9457 106.806 13.9457C107.614 13.9457 107.993 14.4728 107.993 15.3789V20.3868H110.678V15.6589C110.678 14.6541 111.155 13.9457 112.012 13.9457C112.819 13.9457 113.198 14.4728 113.198 15.3789V20.3868H115.883V14.9012C115.883 13.0067 114.928 11.7053 113.017 11.7053C111.93 11.7053 111.024 12.1666 110.365 13.1879H110.332C109.903 12.2819 109.063 11.7053 107.96 11.7053C106.741 11.7053 105.933 12.2819 105.406 13.155H105.357V11.9524H102.787V20.3868Z" fill="#FFFDF5"/>
<path fill-rule="evenodd" clip-rule="evenodd" d="M14.1974 0.899414C21.9274 0.899414 28.1938 7.1658 28.1938 14.8958C28.1938 22.6259 21.9274 28.8923 14.1974 28.8923C6.4674 28.8923 0.201004 22.6259 0.201004 14.8958C0.201004 7.1658 6.4674 0.899414 14.1974 0.899414ZM27.6566 14.8958C27.6566 7.46252 21.6307 1.4366 14.1974 1.4366C13.5978 1.4366 13.0074 1.4758 12.4285 1.55179C12.8026 1.51909 13.181 1.5024 13.5635 1.5024C20.6664 1.5024 26.4245 7.26045 26.4245 14.3634C26.4245 21.4662 20.6664 27.2243 13.5635 27.2243C6.83896 27.2243 1.31982 22.0634 0.750915 15.4863C1.05996 22.6456 6.96192 28.355 14.1974 28.355C21.6307 28.355 27.6566 22.3291 27.6566 14.8958ZM25.8872 14.3634C25.8872 7.55711 20.3697 2.03959 13.5635 2.03959C13.0109 2.03959 12.4667 2.07597 11.9333 2.14646C12.2617 2.11882 12.594 2.10472 12.9296 2.10472C19.4054 2.10472 24.6551 7.35442 24.6551 13.8302C24.6551 20.306 19.4054 25.5556 12.9296 25.5556C6.80657 25.5556 1.77972 20.8623 1.25026 14.8768C1.51945 21.4449 6.92931 26.6871 13.5635 26.6871C20.3697 26.6871 25.8872 21.1695 25.8872 14.3634ZM12.9296 2.64191C19.1087 2.64191 24.1179 7.65107 24.1179 13.8302C24.1179 20.0093 19.1087 25.0184 12.9296 25.0184C6.89369 25.0184 1.97407 20.2387 1.74938 14.2577C2.23449 19.6561 6.77104 23.887 12.2958 23.887C18.144 23.887 22.8851 19.146 22.8851 13.2977C22.8851 7.44934 18.144 2.70838 12.2958 2.70838C11.9932 2.70838 11.6936 2.72107 11.3975 2.74594C11.8984 2.67735 12.4099 2.64191 12.9296 2.64191ZM22.3478 13.2977C22.3478 7.74607 17.8474 3.24557 12.2958 3.24557C11.8267 3.24557 11.3651 3.2777 10.9132 3.33987C11.16 3.32055 11.4094 3.31072 11.6612 3.31072C16.8824 3.31072 21.115 7.54331 21.115 12.7645C21.115 17.9857 16.8824 22.2183 11.6612 22.2183C6.74685 22.2183 2.70833 18.4687 2.25057 13.6743C2.44861 19.0514 6.87022 23.3498 12.2958 23.3498C17.8474 23.3498 22.3478 18.8493 22.3478 13.2977ZM11.6612 3.8479C16.5857 3.8479 20.5778 7.84004 20.5778 12.7645C20.5778 17.6891 16.5857 21.6812 11.6612 21.6812C6.83366 21.6812 2.90219 17.8448 2.74917 13.0545C3.16247 17.2622 6.71096 20.5497 11.0273 20.5497C15.6214 20.5497 19.3456 16.8254 19.3456 12.2314C19.3456 7.63728 15.6214 3.91303 11.0273 3.91303C10.8166 3.91303 10.6078 3.92086 10.401 3.93625C10.8127 3.87802 11.2334 3.8479 11.6612 3.8479ZM18.8085 12.2314C18.8085 7.93394 15.3247 4.45022 11.0273 4.45022C10.635 4.45022 10.2495 4.47925 9.87283 4.53527C10.0448 4.52296 10.2184 4.51669 10.3935 4.51669C14.36 4.51669 17.5756 7.73227 17.5756 11.6989C17.5756 15.6655 14.36 18.881 10.3935 18.881C6.6765 18.881 3.61904 16.0576 3.24885 12.4384C3.35859 16.6401 6.79911 20.0126 11.0273 20.0126C15.3247 20.0126 18.8085 16.5288 18.8085 12.2314ZM10.3935 5.05388C14.0634 5.05388 17.0384 8.02893 17.0384 11.6989C17.0384 15.3688 14.0634 18.3439 10.3935 18.3439C6.7702 18.3439 3.82426 15.4441 3.74987 11.8387C4.08457 14.8615 6.64752 17.2124 9.75958 17.2124C13.0991 17.2124 15.8063 14.5052 15.8063 11.1657C15.8063 7.82624 13.0991 5.11901 9.75958 5.11901C9.63184 5.11901 9.50506 5.12297 9.37932 5.13078C9.70995 5.08014 10.0486 5.05388 10.3935 5.05388ZM15.2691 11.1657C15.2691 8.1229 12.8024 5.6562 9.75958 5.6562C9.454 5.6562 9.15425 5.68108 8.86219 5.72891C8.94923 5.72433 9.03681 5.72201 9.12501 5.72201C11.8374 5.72201 14.0362 7.92083 14.0362 10.6332C14.0362 13.3456 11.8374 15.5445 9.12501 15.5445C6.61696 15.5445 4.54802 13.6645 4.25048 11.2368C4.28858 14.2469 6.74049 16.6753 9.75958 16.6753C12.8024 16.6753 15.2691 14.2086 15.2691 11.1657ZM9.12501 6.25919C11.5407 6.25919 13.499 8.21748 13.499 10.6332C13.499 13.049 11.5407 15.0073 9.12501 15.0073C6.70927 15.0073 4.75094 13.049 4.75094 10.6332C4.75094 10.6275 4.75095 10.6216 4.75097 10.6159C5.00248 12.4568 6.58115 13.8752 8.49113 13.8752C10.576 13.8752 12.2662 12.185 12.2662 10.1001C12.2662 8.01514 10.576 6.32501 8.49113 6.32501C8.44397 6.32501 8.39702 6.32587 8.35028 6.32758C8.60171 6.28265 8.86061 6.25919 9.12501 6.25919ZM11.729 10.1001C11.729 8.31186 10.2794 6.86219 8.49113 6.86219C6.70288 6.86219 5.25322 8.31186 5.25322 10.1001C5.25322 11.8883 6.70288 13.338 8.49113 13.338C10.2794 13.338 11.729 11.8883 11.729 10.1001Z" fill="#FFFDF5"/>
</g>
<defs>
<clipPath id="clip0_107_13942">
<rect width="116" height="28.8284" fill="white" transform="translate(0 0.239258)"/>
</clipPath>
</defs>
</svg>
