<svg width="152" height="20" viewBox="0 0 152 20" fill="none" xmlns="http://www.w3.org/2000/svg">
<path d="M75.693 16.5277H70.573V2.83967H75.693V16.5277ZM71.073 16.0277H75.193V3.33967H71.073V16.0277ZM82.817 16.5277H77.8V2.83967H88.282C89.7836 2.71807 91.279 3.13964 92.496 4.02767C93.0199 4.50698 93.426 5.10086 93.6825 5.76296C93.9391 6.42507 94.0392 7.1375 93.975 7.84467C94.0498 9.06664 93.6609 10.2719 92.886 11.2197C91.969 12.2717 90.443 12.8137 88.351 12.8327C87.824 12.8467 83.875 12.8327 82.82 12.8327L82.817 16.5277ZM78.297 16.0277H82.317V12.3277H82.568C82.619 12.3277 87.746 12.3437 88.339 12.3277C90.288 12.3107 91.689 11.8277 92.508 10.8847C93.1978 10.0271 93.5404 8.94182 93.468 7.84367C93.5295 7.21004 93.4442 6.57076 93.2188 5.97541C92.9933 5.38006 92.6338 4.84464 92.168 4.41067C91.0396 3.60077 89.659 3.2206 88.275 3.33867H78.3L78.297 16.0277ZM87.22 9.75767H82.283V6.03167H87.253C87.6053 5.98299 87.9642 6.02411 88.2963 6.1512C88.6285 6.2783 88.9232 6.48725 89.153 6.75867C89.3615 7.10561 89.4598 7.50765 89.435 7.91167C89.4537 8.28677 89.3727 8.66014 89.2 8.99367C88.9629 9.27955 88.6562 9.49962 88.3094 9.63272C87.9627 9.76582 87.5875 9.80747 87.22 9.75367V9.75767ZM82.783 9.25767H87.22C88.04 9.25767 88.548 9.08667 88.773 8.73467C88.8969 8.47882 88.953 8.19543 88.936 7.91167C88.9579 7.61373 88.8933 7.31581 88.75 7.05367L88.744 7.04467C88.506 6.69467 88.033 6.53167 87.253 6.53167H82.783V9.25767ZM103.1 16.7297C98.61 16.7297 95.93 15.6147 94.909 13.3217C94.7419 12.8788 94.6285 12.4175 94.571 11.9477L94.527 11.6597H99.869L99.904 11.8697C99.9451 12.0829 100.036 12.2836 100.168 12.4557C100.379 12.7107 101.083 13.1387 103.419 13.1387C106.227 13.1387 106.227 12.6457 106.227 12.3807C106.227 11.9337 105.902 11.7807 103.612 11.5367L103.177 11.4957C102.315 11.4147 101.225 11.3117 100.727 11.2687C96.527 10.8887 94.652 9.58367 94.652 7.03867C94.652 4.36567 97.843 2.63867 102.782 2.63867C106.811 2.63867 109.407 3.70067 110.496 5.79767C110.754 6.28545 110.928 6.81366 111.009 7.35967L111.044 7.64067H105.696L105.674 7.41467C105.653 7.23805 105.578 7.07236 105.458 6.94067C105.258 6.67267 104.626 6.22967 102.664 6.22967C100.255 6.22967 99.923 6.53767 99.923 6.86967C99.923 7.31267 100.684 7.46967 103.123 7.73067C104.14 7.81367 105.775 7.98167 106.335 8.04967C109.856 8.43167 111.427 9.70467 111.427 12.1787C111.428 14.2537 109.983 16.7297 103.1 16.7297ZM95.111 12.1597C95.1611 12.4895 95.2473 12.8127 95.368 13.1237C96.298 15.2127 98.828 16.2297 103.1 16.2297C106.672 16.2297 110.931 15.5297 110.931 12.1787C110.931 9.98567 109.541 8.89967 106.282 8.54667C105.722 8.47867 104.097 8.31167 103.082 8.22767C100.482 7.94567 99.425 7.79567 99.425 6.86967C99.425 5.91167 100.564 5.72967 102.666 5.72967C104.327 5.72967 105.4 6.02967 105.855 6.63467C105.979 6.78372 106.073 6.95562 106.131 7.14067H110.465C110.378 6.75392 110.24 6.38036 110.055 6.02967C109.055 4.11067 106.612 3.13867 102.784 3.13867C98.149 3.13867 95.154 4.66967 95.154 7.03867C95.154 9.29867 96.835 10.4147 100.773 10.7707C101.273 10.8137 102.362 10.9167 103.226 10.9987L103.664 11.0397C105.791 11.2637 106.729 11.4037 106.729 12.3807C106.729 13.4327 105.516 13.6387 103.421 13.6387C101.483 13.6387 100.259 13.3477 99.786 12.7747C99.6402 12.592 99.5302 12.3833 99.462 12.1597H95.111ZM120.927 16.7127C115.707 16.7127 112.827 14.6017 112.827 10.7677V2.83967H117.879V10.7677C117.879 12.0827 119.056 12.8367 121.107 12.8367C123.067 12.8367 124.284 12.0497 124.284 10.7847V2.83967H129.284V11.1877C129.289 14.6987 126.24 16.7127 120.924 16.7127H120.927ZM113.327 3.33967V10.7677C113.327 15.5057 118.085 16.2127 120.927 16.2127C123.865 16.2127 128.792 15.5597 128.792 11.1877V3.33967H124.792V10.7847C124.792 12.3347 123.348 13.3367 121.115 13.3367C118.781 13.3367 117.387 12.3767 117.387 10.7677V3.33967H113.327ZM150.472 16.5277H145.704V10.3477L143 16.5277H138.841L136.165 10.3597V16.5277H131.38V2.83967H137.674L140.944 10.3867L144.372 2.83967H150.478L150.472 16.5277ZM146.204 16.0277H149.972V3.33967H144.69L140.928 11.6187L137.342 3.33967H131.876V16.0277H135.661V7.95367L139.161 16.0307H142.661L146.198 7.96567L146.204 16.0277ZM6.054 3.08967H1.5V16.2777H14.084V12.7667H6.054V3.08967ZM23.276 2.78967C17.463 2.78967 14.406 5.54467 14.406 9.58967C14.406 14.1597 17.615 16.4777 23.276 16.4777C29.508 16.4777 32.129 13.7897 32.129 9.58967C32.129 5.32467 29.172 2.78767 23.276 2.78767V2.78967ZM23.259 6.21667C23.6547 6.21481 24.0502 6.23785 24.443 6.28567L19.352 11.3767C19.1111 10.8318 18.9936 10.2403 19.008 9.64467C19.008 7.57567 20.05 6.21467 23.259 6.21467V6.21667ZM23.276 13.1047C22.8947 13.1064 22.5137 13.085 22.135 13.0407L27.235 7.94067C27.4669 8.47657 27.5779 9.057 27.56 9.64067C27.56 11.6537 26.6 13.1027 23.276 13.1027V13.1047ZM41.152 11.3047H45.839C45.77 11.63 45.6262 11.9347 45.419 12.1947C44.4473 12.9863 43.2072 13.3715 41.958 13.2697C41.3292 13.337 40.6934 13.2683 40.0935 13.0683C39.4936 12.8684 38.9436 12.5418 38.481 12.1107C38.0071 11.4156 37.782 10.5808 37.842 9.74167C37.7653 8.86241 38.0101 7.98519 38.531 7.27267C39.186 6.53267 40.295 6.21367 41.925 6.21367C42.9621 6.1278 43.9979 6.39415 44.865 6.96967C45.1383 7.18675 45.3426 7.47858 45.453 7.80967H49.8C49.7684 7.26414 49.6372 6.729 49.413 6.23067C48.372 4.11367 45.952 2.85367 41.837 2.85367C38.258 2.85367 35.856 3.94567 34.529 5.59267C33.6526 6.78203 33.2027 8.23211 33.252 9.70867C33.1953 11.2187 33.6336 12.7058 34.5 13.9437C35.811 15.6437 38.146 16.4797 40.952 16.4797C42.8175 16.6098 44.6703 16.0873 46.193 15.0017L46.311 16.2777H49.922V8.46567H41.152V11.3047ZM60.171 2.78667C54.359 2.78667 51.301 5.54167 51.301 9.58667C51.301 14.1567 54.509 16.4747 60.171 16.4747C66.404 16.4747 69.025 13.7867 69.025 9.58667C69.025 5.32467 66.068 2.78767 60.171 2.78767V2.78667ZM60.155 6.21367C60.5403 6.21253 60.9253 6.23457 61.308 6.27967L56.237 11.3537C56.0036 10.8148 55.89 10.2318 55.904 9.64467C55.9 7.57567 56.946 6.21367 60.155 6.21367ZM60.171 13.1017C59.7796 13.1034 59.3885 13.0806 59 13.0337L64.117 7.91567C64.3577 8.4587 64.4729 9.04899 64.454 9.64267C64.456 11.6537 63.5 13.1027 60.171 13.1027V13.1017Z" fill="#FFFDF5"/>
</svg>
