<svg width="222" height="24" viewBox="0 0 222 24" fill="none" xmlns="http://www.w3.org/2000/svg">
<path d="M69.9092 23.6685V1.32597H73.0252V23.6685H69.9092ZM62.086 3.51381V0.662985H80.8153V3.51381H62.086Z" fill="white"/>
<path d="M95.1357 23.6685V14.4862C95.1357 13.2928 94.76 12.3094 94.0086 11.5359C93.2573 10.7624 92.2849 10.3757 91.0915 10.3757C90.2959 10.3757 89.5888 10.5525 88.97 10.9061C88.3512 11.2597 87.865 11.7459 87.5114 12.3646C87.1578 12.9834 86.981 13.6906 86.981 14.4862L85.7545 13.7901C85.7545 12.5967 86.0197 11.5359 86.5501 10.6077C87.0805 9.67956 87.8208 8.95028 88.7711 8.41989C89.7214 7.8674 90.7932 7.59116 91.9865 7.59116C93.1799 7.59116 94.2296 7.85635 95.1357 8.38674C96.0639 8.91713 96.7932 9.65746 97.3236 10.6077C97.854 11.558 98.1191 12.6519 98.1191 13.8895V23.6685H95.1357ZM83.9976 23.6685V0H86.981V23.6685H83.9976Z" fill="white"/>
<path d="M102.158 23.6685V7.92265H105.142V23.6685H102.158ZM105.142 14.6851L104.015 14.1878C104.015 12.1768 104.479 10.5746 105.407 9.38122C106.335 8.18785 107.672 7.59116 109.418 7.59116C110.214 7.59116 110.932 7.73481 111.573 8.0221C112.214 8.28729 112.81 8.74033 113.363 9.38122L111.407 11.4033C111.076 11.0497 110.711 10.7956 110.313 10.6409C109.915 10.4862 109.451 10.4088 108.921 10.4088C107.816 10.4088 106.91 10.7624 106.203 11.4696C105.495 12.1768 105.142 13.2486 105.142 14.6851Z" fill="white"/>
<path d="M122.238 24C120.669 24 119.255 23.6464 117.995 22.9392C116.736 22.2099 115.741 21.2265 115.012 19.9889C114.282 18.7514 113.918 17.3481 113.918 15.779C113.918 14.232 114.271 12.8398 114.979 11.6022C115.708 10.3646 116.68 9.39227 117.896 8.68508C119.133 7.9558 120.515 7.59116 122.039 7.59116C123.498 7.59116 124.78 7.92265 125.885 8.58564C127.012 9.24862 127.885 10.1657 128.503 11.337C129.144 12.5083 129.465 13.8343 129.465 15.3149C129.465 15.5359 129.454 15.779 129.432 16.0442C129.41 16.2873 129.365 16.5746 129.299 16.9061H116.006V14.4199H127.708L126.614 15.3812C126.614 14.3204 126.426 13.4254 126.05 12.6961C125.675 11.9448 125.144 11.3702 124.459 10.9724C123.774 10.5525 122.945 10.3425 121.973 10.3425C120.957 10.3425 120.061 10.5635 119.288 11.0055C118.515 11.4475 117.918 12.0663 117.498 12.8619C117.078 13.6575 116.868 14.5967 116.868 15.6796C116.868 16.7845 117.089 17.7569 117.531 18.5967C117.973 19.4144 118.603 20.0552 119.421 20.5193C120.238 20.9613 121.177 21.1823 122.238 21.1823C123.122 21.1823 123.929 21.0276 124.658 20.7182C125.41 20.4088 126.05 19.9448 126.581 19.326L128.503 21.2818C127.752 22.1657 126.824 22.8398 125.719 23.3039C124.636 23.768 123.476 24 122.238 24Z" fill="white"/>
<path d="M140.011 24C138.442 24 137.027 23.6464 135.768 22.9392C134.508 22.2099 133.513 21.2265 132.784 19.9889C132.055 18.7514 131.69 17.3481 131.69 15.779C131.69 14.232 132.044 12.8398 132.751 11.6022C133.48 10.3646 134.453 9.39227 135.668 8.68508C136.906 7.9558 138.287 7.59116 139.812 7.59116C141.27 7.59116 142.552 7.92265 143.657 8.58564C144.784 9.24862 145.657 10.1657 146.276 11.337C146.917 12.5083 147.237 13.8343 147.237 15.3149C147.237 15.5359 147.226 15.779 147.204 16.0442C147.182 16.2873 147.138 16.5746 147.071 16.9061H133.779V14.4199H145.48L144.386 15.3812C144.386 14.3204 144.198 13.4254 143.823 12.6961C143.447 11.9448 142.917 11.3702 142.232 10.9724C141.547 10.5525 140.718 10.3425 139.745 10.3425C138.729 10.3425 137.834 10.5635 137.06 11.0055C136.287 11.4475 135.69 12.0663 135.27 12.8619C134.85 13.6575 134.64 14.5967 134.64 15.6796C134.64 16.7845 134.861 17.7569 135.303 18.5967C135.745 19.4144 136.375 20.0552 137.193 20.5193C138.011 20.9613 138.95 21.1823 140.011 21.1823C140.895 21.1823 141.701 21.0276 142.431 20.7182C143.182 20.4088 143.823 19.9448 144.353 19.326L146.276 21.2818C145.524 22.1657 144.596 22.8398 143.491 23.3039C142.408 23.768 141.248 24 140.011 24Z" fill="white"/>
<path d="M161.22 24C159.894 24 158.723 23.7459 157.706 23.2376C156.712 22.7072 155.894 22 155.253 21.116L157.441 19.0939C157.861 19.7127 158.38 20.1878 158.999 20.5193C159.64 20.8508 160.347 21.0166 161.121 21.0166C161.894 21.0166 162.579 20.8508 163.176 20.5193C163.773 20.1878 164.237 19.7017 164.568 19.0608C164.922 18.3978 165.099 17.5912 165.099 16.6409V0.662985H168.215V16.4751C168.215 18 167.905 19.326 167.286 20.453C166.69 21.5801 165.861 22.453 164.8 23.0718C163.762 23.6906 162.568 24 161.22 24Z" fill="white"/>
<path d="M180.053 24C178.506 24 177.114 23.6354 175.876 22.9061C174.638 22.1768 173.655 21.1934 172.926 19.9558C172.196 18.6961 171.832 17.2928 171.832 15.7459C171.832 14.221 172.196 12.8508 172.926 11.6354C173.655 10.3978 174.638 9.41436 175.876 8.68508C177.114 7.9558 178.506 7.59116 180.053 7.59116C181.578 7.59116 182.959 7.9558 184.196 8.68508C185.456 9.39227 186.451 10.3646 187.18 11.6022C187.909 12.8398 188.274 14.221 188.274 15.7459C188.274 17.2928 187.909 18.6961 187.18 19.9558C186.451 21.1934 185.456 22.1768 184.196 22.9061C182.959 23.6354 181.578 24 180.053 24ZM180.053 21.116C181.047 21.116 181.931 20.884 182.705 20.4199C183.478 19.9558 184.086 19.326 184.528 18.5304C184.97 17.7127 185.191 16.7845 185.191 15.7459C185.191 14.7293 184.959 13.8232 184.495 13.0276C184.053 12.232 183.445 11.6133 182.672 11.1713C181.92 10.7072 181.047 10.4751 180.053 10.4751C179.058 10.4751 178.174 10.7072 177.401 11.1713C176.627 11.6133 176.02 12.232 175.578 13.0276C175.136 13.8232 174.915 14.7293 174.915 15.7459C174.915 16.7845 175.136 17.7127 175.578 18.5304C176.02 19.326 176.627 19.9558 177.401 20.4199C178.174 20.884 179.058 21.116 180.053 21.116Z" fill="white"/>
<path d="M199.923 24C198.729 24 197.646 23.7569 196.674 23.2707C195.724 22.7624 194.961 22.0663 194.387 21.1823C193.812 20.2983 193.492 19.2928 193.425 18.1657V13.4254C193.492 12.2762 193.812 11.2707 194.387 10.4088C194.983 9.52486 195.757 8.83978 196.707 8.35359C197.679 7.8453 198.751 7.59116 199.923 7.59116C201.359 7.59116 202.652 7.9558 203.801 8.68508C204.972 9.41436 205.889 10.3978 206.552 11.6354C207.215 12.8729 207.547 14.2652 207.547 15.8122C207.547 17.3591 207.215 18.7514 206.552 19.9889C205.889 21.2265 204.972 22.2099 203.801 22.9392C202.652 23.6464 201.359 24 199.923 24ZM199.425 21.1823C200.42 21.1823 201.293 20.9503 202.044 20.4862C202.796 20.0221 203.392 19.3923 203.834 18.5967C204.276 17.779 204.497 16.8398 204.497 15.779C204.497 14.7403 204.276 13.8122 203.834 12.9945C203.392 12.1768 202.796 11.547 202.044 11.105C201.293 10.6409 200.431 10.4088 199.458 10.4088C198.464 10.4088 197.591 10.6409 196.84 11.105C196.088 11.547 195.503 12.1768 195.083 12.9945C194.663 13.8122 194.453 14.7514 194.453 15.8122C194.453 16.8508 194.652 17.779 195.05 18.5967C195.47 19.3923 196.055 20.0221 196.807 20.4862C197.58 20.9503 198.453 21.1823 199.425 21.1823ZM191.635 23.6685V0H194.619V11.768L194.055 15.5801L194.619 19.4254V23.6685H191.635Z" fill="white"/>
<path d="M215.935 24C215.051 24 214.211 23.8895 213.415 23.6685C212.642 23.4254 211.924 23.0939 211.261 22.674C210.598 22.232 210.023 21.7127 209.537 21.116L211.46 19.1934C212.034 19.9006 212.697 20.4309 213.448 20.7845C214.2 21.116 215.04 21.2818 215.968 21.2818C216.896 21.2818 217.614 21.1271 218.122 20.8177C218.631 20.4862 218.885 20.0331 218.885 19.4586C218.885 18.884 218.675 18.442 218.255 18.1326C217.857 17.8011 217.338 17.5359 216.697 17.337C216.056 17.116 215.371 16.9061 214.642 16.7072C213.935 16.4862 213.261 16.2099 212.62 15.8785C211.979 15.547 211.448 15.0939 211.029 14.5193C210.631 13.9448 210.432 13.1823 210.432 12.232C210.432 11.2818 210.664 10.4641 211.128 9.77901C211.592 9.07182 212.233 8.53039 213.051 8.1547C213.89 7.77901 214.896 7.59116 216.067 7.59116C217.305 7.59116 218.399 7.81215 219.349 8.25414C220.321 8.67403 221.117 9.31492 221.736 10.1768L219.813 12.0994C219.371 11.5249 218.819 11.0829 218.156 10.7735C217.515 10.4641 216.785 10.3094 215.968 10.3094C215.106 10.3094 214.443 10.4641 213.979 10.7735C213.537 11.0608 213.316 11.4696 213.316 12C213.316 12.5304 213.515 12.9392 213.913 13.2265C214.31 13.5138 214.83 13.7569 215.471 13.9558C216.134 14.1547 216.819 14.3646 217.526 14.5856C218.233 14.7845 218.907 15.0608 219.548 15.4144C220.189 15.768 220.708 16.2431 221.106 16.8398C221.526 17.4365 221.736 18.221 221.736 19.1934C221.736 20.674 221.205 21.8453 220.145 22.7072C219.106 23.5691 217.703 24 215.935 24Z" fill="white"/>
<path d="M11.4691 11.1505C11.4691 14.3176 8.90165 16.885 5.73455 16.885C2.56744 16.885 0 14.3176 0 11.1505C0 7.98339 2.56744 5.41595 5.73455 5.41595C8.90165 5.41595 11.4691 7.98339 11.4691 11.1505Z" fill="#6AB8FF"/>
<path d="M45.8764 11.1505C45.8764 14.3176 43.3089 16.885 40.1418 16.885C36.9747 16.885 34.4073 14.3176 34.4073 11.1505C34.4073 7.98339 36.9747 5.41595 40.1418 5.41595C43.3089 5.41595 45.8764 7.98339 45.8764 11.1505Z" fill="#6AB8FF"/>
<path d="M31.54 11.1505C31.54 15.9011 27.6888 19.7523 22.9382 19.7523C18.1875 19.7523 14.3364 15.9011 14.3364 11.1505C14.3364 6.39984 18.1875 2.54868 22.9382 2.54868C27.6888 2.54868 31.54 6.39984 31.54 11.1505Z" fill="#6AB8FF"/>
</svg>
