<svg width="88" height="88" viewBox="0 0 88 88" fill="none" xmlns="http://www.w3.org/2000/svg">
<g clip-path="url(#clip0_107_21995)">
<path d="M88 0H0V88H88V0Z" fill="url(#paint0_radial_107_21995)"/>
<path fill-rule="evenodd" clip-rule="evenodd" d="M44.7246 19.9691C31.1872 19.9691 20.6935 29.8853 20.6935 43.2794C20.6935 50.2853 23.5648 56.3391 28.2406 60.5206C28.6331 60.8719 28.8701 61.3642 28.8861 61.8909L29.017 66.1655C29.0588 67.5291 30.4673 68.4163 31.7149 67.8655L36.4848 65.7599C36.8892 65.5816 37.3423 65.5484 37.7684 65.6657C39.9601 66.2684 42.2931 66.5895 44.7246 66.5895C58.2621 66.5895 68.7556 56.6732 68.7556 43.2794C68.7556 29.8853 58.2621 19.9691 44.7246 19.9691ZM30.295 50.0963L37.3541 38.897C38.4769 37.1152 40.8815 36.6717 42.5663 37.9351L48.1808 42.1461C48.6959 42.5325 49.4047 42.5304 49.9176 42.1411L57.5003 36.3863C58.5123 35.6184 59.8334 36.8295 59.1562 37.9043L52.097 49.1039C50.974 50.8854 48.5695 51.3292 46.8848 50.0655L41.2701 45.8546C40.755 45.4682 40.0462 45.4703 39.5333 45.8595L31.9506 51.6143C30.9386 52.3823 29.6175 51.1712 30.295 50.0963Z" fill="white"/>
</g>
<defs>
<radialGradient id="paint0_radial_107_21995" cx="0" cy="0" r="1" gradientUnits="userSpaceOnUse" gradientTransform="translate(16.9378 87.5293) scale(95.8844)">
<stop stop-color="#0099FF"/>
<stop offset="0.609754" stop-color="#A033FF"/>
<stop offset="0.934823" stop-color="#FF5280"/>
<stop offset="1" stop-color="#FF7061"/>
</radialGradient>
<clipPath id="clip0_107_21995">
<rect width="88" height="88" fill="white"/>
</clipPath>
</defs>
</svg>
